<svg id="Layer_1" data-name="Layer 1" xmlns="http://www.w3.org/2000/svg" viewBox="0 0 424 593">
<defs>
<style>.cls-1,.cls-5{fill:#7997ce;}.cls-1,.cls-4{stroke:#231f20;}.cls-1,.cls-4,.cls-5{stroke-miterlimit:10;}.cls-2{font-size:47.96px;}.cls-2,.cls-3,.cls-6{fill:#2b2b2b;font-family:MyriadPro-BoldCond, Myriad Pro;font-weight:700;}.cls-3{font-size:38.76px;}.cls-4{fill:none;stroke-width:3px;}.cls-5{stroke:#000;}.cls-6{font-size:30.6px;}.cls-7{letter-spacing:-0.01em;}.cls-8{letter-spacing:0em;}</style>
</defs>
<title>PICT PTZ_Right</title>
<rect class="cls-1" x="50.25" y="298" width="50" height="50"/>
<rect class="cls-1" x="50.25" y="233" width="50" height="50"/>
<rect class="cls-1" x="50.25" y="168" width="50" height="50"/>
<rect class="cls-1" x="50.25" y="38" width="50" height="50"/>
<rect class="cls-1" x="50.25" y="103" width="50" height="50"/>
<rect class="cls-1" x="106.75" y="298" width="50" height="50"/>
<rect class="cls-1" x="106.75" y="233" width="50" height="50"/>
<rect class="cls-1" x="106.75" y="168" width="50" height="50"/>
<rect class="cls-1" x="106.75" y="38" width="50" height="50"/>
<rect class="cls-1" x="106.75" y="103" width="50" height="50"/>
<rect class="cls-1" x="163.25" y="298" width="50" height="50"/>
<rect class="cls-1" x="163.25" y="233" width="50" height="50"/>
<rect class="cls-1" x="163.25" y="168" width="50" height="50"/>
<rect class="cls-1" x="163.25" y="38" width="50" height="50"/>
<rect class="cls-1" x="163.25" y="103" width="50" height="50"/>
<rect class="cls-1" x="220" y="298" width="50" height="50"/>
<rect class="cls-1" x="220" y="233" width="50" height="50"/>
<rect class="cls-1" x="220" y="168" width="50" height="50"/>
<rect class="cls-1" x="219.5" y="38" width="50" height="50"/>
<rect class="cls-1" x="220" y="103" width="50" height="50"/>
<rect class="cls-1" x="275.75" y="297" width="50" height="50"/>
<rect class="cls-1" x="275.75" y="233" width="50" height="50"/>
<rect class="cls-1" x="275.75" y="168" width="50" height="50"/>
<rect class="cls-1" x="275.75" y="38" width="50" height="50"/>
<rect class="cls-1" x="275.75" y="103" width="50" height="50"/>
<text class="cls-2" transform="translate(65.03 339.08)">1</text>
<text class="cls-2" transform="translate(65.03 274.08)">6</text>
<text class="cls-2" transform="translate(121.53 275.14)">7</text>
<text class="cls-2" transform="translate(178.03 275.14)">8</text>
<text class="cls-2" transform="translate(234.78 274.08)">9</text>
<text class="cls-2" transform="translate(279.32 274.08)">10</text>
<text class="cls-2" transform="translate(54.82 209.08)">11</text>
<text class="cls-2" transform="translate(111.32 209.08)">12</text>
<text class="cls-2" transform="translate(167.82 209.08)">13</text>
<text class="cls-2" transform="translate(224.57 209.08)">14</text>
<text class="cls-2" transform="translate(280.32 209.08)">15</text>
<text class="cls-2" transform="translate(54.82 144.08)">16</text>
<text class="cls-2" transform="translate(111.32 144.08)">17</text>
<text class="cls-2" transform="translate(167.82 144.08)">18</text>
<text class="cls-2" transform="translate(224.57 144.08)">19</text>
<text class="cls-2" transform="translate(279.32 144.08)">20</text>
<text class="cls-2" transform="translate(54.82 79.08)">21</text>
<text class="cls-2" transform="translate(111.32 79.08)">22</text>
<text class="cls-2" transform="translate(167.82 79.08)">23</text>
<text class="cls-2" transform="translate(224.07 79.08)">24</text>
<text class="cls-2" transform="translate(280.32 79.08)">25</text>
<text class="cls-2" transform="translate(121.53 339.08)">2</text>
<text class="cls-2" transform="translate(178.03 339.08)">3</text>
<text class="cls-2" transform="translate(234.78 339.08)">4</text>
<text class="cls-2" transform="translate(290.53 338.08)">5</text>
<rect class="cls-1" x="-81.63" y="406" width="163.25" height="67"/>
<text class="cls-3" transform="translate(-54.53 450.88)">PODIUM</text>
<polyline class="cls-4" points="-404 0 -404 433 -156 579 158 579 408 433 408 0"/>
<rect class="cls-5" x="211" y="406" width="67" height="67"/>
<text class="cls-6" transform="translate(216.78 437.45)">WIDE<tspan x="0" y="26.05">SH</tspan>
<tspan class="cls-7" x="27.82" y="26.05">O</tspan>
<tspan class="cls-8" x="42.32" y="26.05">T</tspan>
</text>
</svg>